<?xml version="1.0" encoding="utf-8"?>
<!-- Generator: Adobe Illustrator 22.1.0, SVG Export Plug-In . SVG Version: 6.00 Build 0)  -->
<svg version="1.1" id="Capa_1" xmlns="http://www.w3.org/2000/svg" xmlns:xlink="http://www.w3.org/1999/xlink" x="0px" y="0px"
	 viewBox="0 0 451 451" style="enable-background:new 0 0 451 451;" xml:space="preserve">
<style type="text/css">
	.st0{fill:#222221;}
</style>
<g>
	<path class="st0" d="M447,428L337.4,318.4c29.4-33.8,47.2-77.9,47.2-126.1C384.6,86.2,298.4,0,192.4,0C86.2,0,0.1,86.3,0.1,192.3
		s86.3,192.3,192.3,192.3c48.2,0,92.3-17.8,126.1-47.2L428,447c2.6,2.6,6.1,4,9.5,4s6.9-1.3,9.5-4C452.2,441.8,452.2,433.2,447,428z
		 M27,192.3C27,101.1,101.1,27,192.2,27c91.2,0,165.3,74.2,165.3,165.3s-74.1,165.4-165.3,165.4C101.2,357.7,27,283.5,27,192.3z"/>
</g>
</svg>
