<?xml version="1.0" encoding="utf-8"?>
<!-- Generator: Adobe Illustrator 22.1.0, SVG Export Plug-In . SVG Version: 6.00 Build 0)  -->
<svg version="1.1" id="Capa_1" xmlns="http://www.w3.org/2000/svg" xmlns:xlink="http://www.w3.org/1999/xlink" x="0px" y="0px"
	 viewBox="0 0 512 512" style="enable-background:new 0 0 512 512;" xml:space="preserve">
<style type="text/css">
	.st0{fill:#2196F3;}
</style>
<path class="st0" d="M511.2,260c1.6-4,0.7-8.6-2.3-11.6l-192-192c-4.2-4.1-11-4-15.1,0.3c-4,4.1-4,10.7,0,14.8l173.8,173.8H10.7
	C4.8,245.2,0,250,0,255.9c0,5.9,4.8,10.7,10.7,10.7h464.9L301.8,440.3c-4.2,4.1-4.4,10.8-0.3,15.1c4.1,4.2,10.8,4.4,15.1,0.3
	c0.1-0.1,0.2-0.2,0.3-0.3l192-192C509.9,262.4,510.7,261.2,511.2,260z"/>
<path d="M309.3,458.5c-5.9,0-10.7-4.8-10.7-10.6c0-2.8,1.1-5.6,3.1-7.6l184.5-184.4L301.8,71.4c-4.1-4.2-4-11,0.3-15.1
	c4.1-4,10.7-4,14.8,0l192,192c4.2,4.2,4.2,10.9,0,15.1l-192,192C314.9,457.4,312.2,458.5,309.3,458.5z"/>
<path d="M501.3,266.5H10.7c-5.9,0-10.7-4.8-10.7-10.7c0-5.9,4.8-10.7,10.7-10.7h490.7c5.9,0,10.7,4.8,10.7,10.7
	C512,261.8,507.2,266.5,501.3,266.5z"/>
</svg>
